<svg xmlns="http://www.w3.org/2000/svg" width="16" height="16">
  <path d="M 7 0 L 7 6 L 9 6 L 9 0 L 7 0 z M 1 1 C 0.446 1 0 1.446 0 2 L 0 12 C 0 12.554 0.44604254 12.993134 1 13 L 4 13 L 4 14 C 4 14.554 4.446 15 5 15 L 10 15 L 10 13 L 6 13 L 6 11 L 2 11 L 2 3 L 6 3 L 6 1 L 1 1 z M 10 1 L 10 3 L 14 3 L 14 10 L 16 10 L 16 2 C 16 1.446 15.554 1 15 1 L 10 1 z M 3 4 L 3 6 L 5 6 L 5 4 L 3 4 z M 11 4 L 11 6 L 13 6 L 13 4 L 11 4 z M 11 11 L 11 16 L 16 16 L 16 11 L 11 11 z M 12 12 L 13 12 L 13 13 L 14 13 L 14 12 L 15 12 L 15 14 L 14 14 L 14 15 L 13 15 L 13 14 L 12 14 L 12 12 z " fill="#c0bfbc" />
</svg>
