<?xml version="1.0" encoding="UTF-8"?>
<svg version="1.1" viewBox="0 0 128 128" xmlns="http://www.w3.org/2000/svg" xmlns:xlink="http://www.w3.org/1999/xlink">
<defs>
<linearGradient id="a">
<stop stop-color="#1a5fb4" offset="0"/>
<stop stop-color="#1a5fb4" stop-opacity="0" offset="1"/>
</linearGradient>
<linearGradient id="k" x1="2" x2="30" y1="17" y2="17" gradientTransform="scale(4)" gradientUnits="userSpaceOnUse">
<stop stop-color="#9a9996" offset="0"/>
<stop stop-color="#c0bfbc" offset=".035714"/>
<stop stop-color="#9a9996" offset=".071429"/>
<stop stop-color="#9a9996" offset=".92502"/>
<stop stop-color="#c0bfbc" offset=".96244"/>
<stop stop-color="#9a9996" offset="1"/>
</linearGradient>
<radialGradient id="j" cx="16" cy="15.5" r="10" gradientTransform="matrix(4,0,0,2.6,0,25.7)" gradientUnits="userSpaceOnUse">
<stop stop-color="#3d3846" offset="0"/>
<stop stop-color="#241f31" offset="1"/>
</radialGradient>
<linearGradient id="l" x1="9" x2="9" y1="10" y2="12" gradientTransform="matrix(4,0,0,4,0,4)" gradientUnits="userSpaceOnUse">
<stop stop-color="#e5a50a" offset="0"/>
<stop stop-color="#f6d32d" stop-opacity="0" offset="1"/>
</linearGradient>
<linearGradient id="i" x1="2" x2="30" y1="16" y2="16" gradientTransform="scale(4)" gradientUnits="userSpaceOnUse">
<stop stop-color="#deddda" offset="0"/>
<stop stop-color="#f6f5f4" offset="1"/>
</linearGradient>
<linearGradient id="h" x1="8" x2="8" y1="13" y2="16" gradientTransform="scale(4)" gradientUnits="userSpaceOnUse" xlink:href="#a"/>
<linearGradient id="g" x1="8" x2="8" y1="13" y2="16" gradientTransform="matrix(4 0 0 4 40 0)" gradientUnits="userSpaceOnUse" xlink:href="#a"/>
<linearGradient id="c" x1="8" x2="8" y1="13" y2="16" gradientTransform="matrix(4,0,0,4,60,0)" gradientUnits="userSpaceOnUse" xlink:href="#a"/>
<linearGradient id="b" x1="8" x2="8" y1="13" y2="16" gradientTransform="matrix(4 0 0 4 20 0)" gradientUnits="userSpaceOnUse">
<stop stop-color="#c64600" offset="0"/>
<stop stop-color="#c64600" stop-opacity="0" offset="1"/>
</linearGradient>
</defs>
<rect x="8" y="24" width="112" height="88" ry="8" fill="url(#k)"/>
<rect x="8" y="20" width="112" height="88" ry="8" fill="url(#i)"/>
<path d="m24 40v44h24v8h32v-8h24v-44z" fill="url(#j)"/>
<path d="m36 44v8h8v-8zm12 0v8h8v-8zm12 0v8h8v-8zm12 0v8h8v-8zm12 0v8h8v-8z" fill="url(#l)"/>
<rect x="44" y="16" width="20" height="44" ry="8" fill="url(#b)"/>
<rect x="22.072" y="88" width="12" height="8" ry="0" fill="#e5a50a"/>
<rect x="92" y="88" width="12" height="8" ry="0" fill="#26a269"/>
<rect x="24" y="28" width="20" height="32" ry="8" fill="url(#h)"/>
<rect x="44" y="16" width="20" height="20" ry="8" fill="#ff7800"/>
<rect x="24" y="28" width="20" height="20" ry="8" fill="#3584e4"/>
<rect x="64" y="28" width="20" height="32" ry="8" fill="url(#g)"/>
<rect x="64" y="28" width="20" height="20" ry="8" fill="#3584e4"/>
<rect x="84" y="28" width="20" height="32" ry="8" fill="url(#c)"/>
<rect x="84" y="28" width="20" height="20" ry="8" fill="#3584e4"/>
</svg>
